<svg version="1.1" id="Layer_1" xmlns="http://www.w3.org/2000/svg" xmlns:xlink="http://www.w3.org/1999/xlink" x="0px" y="0px"
	 width="100%" viewBox="0 0 1024 1008" enable-background="new 0 0 1024 1008" xml:space="preserve">
<path fill="#000000" opacity="1.000000" stroke="none" 
	d="
M169.874557,172.893036 
	C178.243698,163.920151 188.299774,161.745255 199.724426,165.790237 
	C211.588776,169.990875 221.425934,177.372635 230.946442,185.228928 
	C261.662384,210.575607 290.641632,237.907196 320.724762,263.982239 
	C356.955139,295.385529 394.861115,324.212341 437.861206,346.016327 
	C456.135376,355.282562 474.360687,364.599365 493.224854,372.566864 
	C509.245453,379.333344 525.074524,386.647583 541.680359,391.921875 
	C551.446655,395.023804 561.445374,397.242889 571.517578,399.311951 
	C584.967224,402.074738 598.606934,403.414368 612.141296,404.960083 
	C624.755432,406.400726 637.588501,407.921570 650.424683,406.766174 
	C674.016113,404.642639 695.143494,396.429230 713.874084,381.784393 
	C724.104980,373.785156 734.871826,366.622559 747.450562,362.447449 
	C769.574585,355.104004 785.584473,363.639709 797.380310,383.211426 
	C797.894165,384.064117 798.390137,384.963562 798.685242,385.906677 
	C801.906433,396.199829 808.828674,403.194244 818.094055,408.305908 
	C820.878418,409.842041 825.035522,411.191040 824.657593,415.005646 
	C824.315613,418.457245 820.057617,418.898529 817.343750,420.307251 
	C807.442017,425.447174 797.180359,429.932831 787.800781,436.022308 
	C771.482300,446.616699 761.613708,461.721161 757.287476,480.575592 
	C756.766663,482.845520 756.085510,485.092438 755.758606,487.389832 
	C755.251038,490.958008 752.961914,492.438690 749.772705,493.148041 
	C722.807678,499.145508 695.763367,504.815826 668.914612,511.296021 
	C652.678101,515.214905 636.399658,518.930542 620.118469,522.639526 
	C604.012390,526.308533 587.744629,529.318604 571.748230,533.403015 
	C556.688232,537.248352 545.302856,545.924133 539.090576,560.872192 
	C535.401367,569.749146 532.741028,578.881531 533.836609,588.277527 
	C535.211670,600.070251 537.951477,611.711243 540.638916,623.322021 
	C545.730957,645.321899 550.515930,667.392761 555.454712,689.428345 
	C555.706726,690.552795 556.236877,691.612122 556.581421,692.719177 
	C558.099854,697.598450 556.646179,699.990417 551.738159,701.015076 
	C526.304932,706.325012 501.385101,713.539490 476.346985,720.436157 
	C448.791962,728.026062 427.061951,743.803345 406.790649,762.790771 
	C391.007507,777.574341 375.682831,792.912476 357.325928,804.732117 
	C348.011749,810.729370 338.191956,812.957886 327.341003,811.291138 
	C321.861572,810.449341 317.448395,807.388489 313.087830,804.375183 
	C295.437744,792.178833 284.670959,774.706055 276.514252,755.446533 
	C268.861694,737.377441 264.657013,718.466370 264.709778,698.775024 
	C264.727600,692.122681 265.728088,685.515198 268.438873,679.308228 
	C272.754517,669.426880 280.608551,663.798096 290.626862,660.661377 
	C307.100006,655.503845 323.867218,656.444153 340.622986,658.361877 
	C369.175110,661.629578 397.215210,661.574341 423.175079,646.764648 
	C433.412750,640.924194 443.081818,634.223633 447.932648,622.929565 
	C455.144684,606.137878 451.622742,590.245911 442.160004,575.541260 
	C433.277283,561.737854 420.458740,551.720703 407.440887,542.079102 
	C369.506531,513.983582 328.783386,490.168365 288.995636,464.910339 
	C260.294495,446.690277 232.031799,427.914886 208.350311,403.001953 
	C186.082047,379.575714 169.832703,352.844482 161.680435,321.564056 
	C157.411057,305.182343 154.259140,288.525848 153.595825,271.458679 
	C153.059830,257.667206 151.342438,243.940811 152.720474,230.082977 
	C154.220505,214.998428 155.446915,199.914688 161.694839,185.796616 
	C163.739304,181.176865 166.285751,176.931015 169.874557,172.893036 
M763.597778,403.100220 
	C770.436890,404.350769 775.075317,401.654236 776.530701,395.581696 
	C777.747864,390.503387 774.714966,385.869873 769.200317,384.382629 
	C765.191589,383.301514 760.028992,385.540283 758.122437,389.186523 
	C755.732056,393.758148 757.511169,398.813721 763.597778,403.100220 
z"/>
<path fill="#000000" opacity="1.000000" stroke="none" 
	d="
M778.321899,701.350708 
	C751.255493,707.377563 724.612732,713.359131 697.959717,719.294556 
	C670.524231,725.404419 643.063049,731.399780 615.644653,737.585266 
	C603.311340,740.367554 603.025452,740.495422 600.281860,728.254639 
	C594.970886,704.558777 589.967773,680.794128 584.731201,657.081299 
	C579.749695,634.523621 574.828247,611.948792 569.424805,589.491150 
	C568.227295,584.513916 567.194275,579.493347 565.925293,574.533203 
	C565.600952,573.265503 564.598206,572.062927 565.986816,570.927307 
	C567.150696,569.975464 568.431030,570.289062 569.765564,570.717163 
	C580.464783,574.150024 591.192261,577.494812 601.886047,580.944153 
	C615.920227,585.470886 629.890320,590.200317 643.961304,594.608643 
	C674.090088,604.048035 704.281494,613.287476 734.398926,622.762390 
	C737.531433,623.747864 739.709595,623.297241 742.069702,621.166931 
	C766.432861,599.175903 790.846130,577.240356 815.260803,555.306458 
	C831.243835,540.947449 847.218445,526.578735 863.268982,512.295471 
	C868.191467,507.914886 869.930237,508.515747 871.359375,514.992798 
	C875.437317,533.473999 879.310181,552.000793 883.450256,570.467834 
	C887.802002,589.879150 892.418884,609.230896 896.824951,628.630188 
	C899.581238,640.765808 902.290283,652.915161 904.772766,665.108826 
	C906.210327,672.170044 904.894165,673.634888 897.684631,675.218872 
	C871.528198,680.965820 845.393555,686.811890 819.238586,692.565369 
	C805.752563,695.531921 792.241089,698.382324 778.321899,701.350708 
z"/>
<path fill="#000000" opacity="1.000000" stroke="none" 
	d="
M601.854492,314.142242 
	C623.057617,336.850403 646.651123,356.482544 670.118164,376.192047 
	C667.647583,379.439514 665.182617,378.987244 662.938660,379.105408 
	C648.287781,379.876740 633.835876,377.729736 619.309082,376.358429 
	C607.078552,375.203857 594.974487,373.242554 582.974304,370.949646 
	C565.712524,367.651459 549.176392,361.787140 532.934998,354.928955 
	C501.913208,341.829590 472.407532,325.755615 442.773224,309.928253 
	C418.170441,296.788208 395.328156,280.954803 373.614990,263.476349 
	C372.447266,262.536377 371.440155,261.287445 370.130585,260.650391 
	C359.414307,255.437180 358.817902,246.159409 360.038635,236.071899 
	C362.035980,219.567047 363.368256,202.906158 367.811798,186.849518 
	C374.244904,163.603592 380.381683,140.125565 396.263763,120.897484 
	C412.631622,101.081299 432.032227,99.164665 451.992126,115.141777 
	C463.903259,124.676186 472.389343,137.044678 480.946808,149.314209 
	C507.611786,187.546127 533.825134,226.094498 560.663086,264.203674 
	C573.027344,281.760651 587.019226,298.099854 601.854492,314.142242 
z"/>
<path fill="#000000" opacity="1.000000" stroke="none" 
	d="
M768.270142,567.284302 
	C757.167419,577.139221 746.268494,586.690796 735.520813,596.409607 
	C732.599670,599.051147 729.661438,599.769836 725.929260,598.627808 
	C692.386414,588.363708 659.033447,577.478333 625.235657,568.045654 
	C615.684082,565.379822 606.293213,562.138611 596.824524,559.174683 
	C596.031067,558.926331 595.181519,558.814880 594.558167,556.483215 
	C674.633179,537.897522 755.264038,522.133484 835.464661,503.244476 
	C836.219116,507.745300 833.686890,509.007507 831.964417,510.546997 
	C810.853027,529.416382 789.684509,548.221924 768.270142,567.284302 
z"/>
</svg>